<svg xmlns="http://www.w3.org/2000/svg" viewBox="0 0 200 200" width="200" height="200">
  <!-- Background circle -->
  <circle cx="100" cy="100" r="95" fill="none" stroke="#2563eb" stroke-width="2"/>
  
  <!-- Brain shape (simplified neural network representation) -->
  <!-- Left hemisphere -->
  <path d="M 60 80 Q 50 70 50 90 Q 50 110 60 120 Q 70 130 80 125 Q 75 135 70 140 Q 65 145 70 150 Q 75 155 85 150 Q 90 145 95 140" 
        fill="#2563eb" opacity="0.8"/>
  
  <!-- Right hemisphere -->
  <path d="M 140 80 Q 150 70 150 90 Q 150 110 140 120 Q 130 130 120 125 Q 125 135 130 140 Q 135 145 130 150 Q 125 155 115 150 Q 110 145 105 140" 
        fill="#2563eb" opacity="0.8"/>
  
  <!-- Neural network connections -->
  <!-- Left connections -->
  <circle cx="70" cy="90" r="3" fill="#3b82f6"/>
  <circle cx="75" cy="110" r="3" fill="#3b82f6"/>
  <circle cx="80" cy="130" r="3" fill="#3b82f6"/>
  
  <!-- Center connections -->
  <circle cx="95" cy="100" r="4" fill="#2563eb"/>
  <circle cx="105" cy="100" r="4" fill="#2563eb"/>
  
  <!-- Right connections -->
  <circle cx="130" cy="90" r="3" fill="#3b82f6"/>
  <circle cx="125" cy="110" r="3" fill="#3b82f6"/>
  <circle cx="120" cy="130" r="3" fill="#3b82f6"/>
  
  <!-- Connecting lines (neural network) -->
  <line x1="70" y1="90" x2="95" y2="100" stroke="#10b981" stroke-width="1.5" opacity="0.6"/>
  <line x1="75" y1="110" x2="95" y2="100" stroke="#10b981" stroke-width="1.5" opacity="0.6"/>
  <line x1="80" y1="130" x2="95" y2="100" stroke="#10b981" stroke-width="1.5" opacity="0.6"/>
  <line x1="95" y1="100" x2="105" y2="100" stroke="#10b981" stroke-width="2" opacity="0.8"/>
  <line x1="130" y1="90" x2="105" y2="100" stroke="#10b981" stroke-width="1.5" opacity="0.6"/>
  <line x1="125" y1="110" x2="105" y2="100" stroke="#10b981" stroke-width="1.5" opacity="0.6"/>
  <line x1="120" y1="130" x2="105" y2="100" stroke="#10b981" stroke-width="1.5" opacity="0.6"/>
  
  <!-- AI/Cognitive sparkle elements -->
  <circle cx="60" cy="70" r="2" fill="#10b981" opacity="0.8">
    <animate attributeName="opacity" values="0.8;0.3;0.8" dur="2s" repeatCount="indefinite"/>
  </circle>
  <circle cx="140" cy="70" r="2" fill="#10b981" opacity="0.8">
    <animate attributeName="opacity" values="0.3;0.8;0.3" dur="2s" repeatCount="indefinite"/>
  </circle>
  <circle cx="50" cy="100" r="2" fill="#3b82f6" opacity="0.7">
    <animate attributeName="opacity" values="0.7;0.2;0.7" dur="2.5s" repeatCount="indefinite"/>
  </circle>
  <circle cx="150" cy="100" r="2" fill="#3b82f6" opacity="0.7">
    <animate attributeName="opacity" values="0.2;0.7;0.2" dur="2.5s" repeatCount="indefinite"/>
  </circle>
</svg>

